<svg xmlns="http://www.w3.org/2000/svg" style="display: none;">
    <symbol id="shield" viewBox="0 0 24 24">
        <path fill="currentColor" d="M12 1L3 5v6c0 5.55 3.84 10.74 9 12 5.16-1.26 9-6.45 9-12V5l-9-4z"/>
    </symbol>
    
    <symbol id="network" viewBox="0 0 24 24">
        <path fill="currentColor" d="M21.7 7.3l-5-5c-.4-.4-1-.4-1.4 0l-5 5-5-5c-.4-.4-1-.4-1.4 0l-5 5c-.4.4-.4 1 0 1.4l5 5c.4.4 1 .4 1.4 0l5-5 5 5c.4.4 1 .4 1.4 0l5-5c.4-.4.4-1 0-1.4z"/>
    </symbol>
    
    <symbol id="security" viewBox="0 0 24 24">
        <path fill="currentColor" d="M12 1L3 5v6c0 5.55 3.84 10.74 9 12 5.16-1.26 9-6.45 9-12V5l-9-4zm0 10.99h7c-.53 4.12-3.28 7.79-7 8.94V12H5V6.3l7-3.11v8.8z"/>
    </symbol>
    
    <symbol id="code" viewBox="0 0 24 24">
        <path fill="currentColor" d="M9.4 16.6L4.8 12l4.6-4.6L8 6l-6 6 6 6 1.4-1.4zm5.2 0l4.6-4.6-4.6-4.6L16 6l6 6-6 6-1.4-1.4z"/>
    </symbol>
    
    <symbol id="mail" viewBox="0 0 24 24">
        <path fill="currentColor" d="M20 4H4c-1.1 0-1.99.9-1.99 2L2 18c0 1.1.9 2 2 2h16c1.1 0 2-.9 2-2V6c0-1.1-.9-2-2-2zm0 4l-8 5-8-5V6l8 5 8-5v2z"/>
    </symbol>
    
    <symbol id="phone" viewBox="0 0 24 24">
        <path fill="currentColor" d="M6.62 10.79c1.44 2.83 3.76 5.14 6.59 6.59l2.2-2.2c.27-.27.67-.36 1.02-.24 1.12.37 2.33.57 3.57.57.55 0 1 .45 1 1V20c0 .55-.45 1-1 1-9.39 0-17-7.61-17-17 0-.55.45-1 1-1h3.5c.55 0 1 .45 1 1 0 1.25.2 2.45.57 3.57.11.35.03.74-.25 1.02l-2.2 2.2z"/>
    </symbol>
    
    <symbol id="location" viewBox="0 0 24 24">
        <path fill="currentColor" d="M12 2C8.13 2 5 5.13 5 9c0 5.25 7 13 7 13s7-7.75 7-13c0-3.87-3.13-7-7-7zm0 9.5c-1.38 0-2.5-1.12-2.5-2.5s1.12-2.5 2.5-2.5 2.5 1.12 2.5 2.5-1.12 2.5-2.5 2.5z"/>
    </symbol>
    
    <symbol id="linkedin" viewBox="0 0 24 24">
        <path fill="currentColor" d="M19 3a2 2 0 0 1 2 2v14a2 2 0 0 1-2 2H5a2 2 0 0 1-2-2V5a2 2 0 0 1 2-2h14zm-.5 15.5v-5.3a3.26 3.26 0 0 0-3.26-3.26c-.85 0-1.84.52-2.32 1.3v-1.11h-2.79v8.37h2.79v-4.93c0-.77.62-1.4 1.39-1.4a1.4 1.4 0 0 1 1.4 1.4v4.93h2.79M6.88 8.56a1.68 1.68 0 0 0 1.68-1.68c0-.93-.75-1.69-1.68-1.69a1.69 1.69 0 0 0-1.69 1.69c0 .93.76 1.68 1.69 1.68m1.39 9.94v-8.37H5.5v8.37h2.77z"/>
    </symbol>
    
    <symbol id="github" viewBox="0 0 24 24">
        <path fill="currentColor" d="M12 2A10 10 0 0 0 2 12c0 4.42 2.87 8.17 6.84 9.5.5.08.66-.23.66-.5v-1.69c-2.77.6-3.36-1.34-3.36-1.34-.46-1.16-1.11-1.47-1.11-1.47-.91-.62.07-.6.07-.6 1 .07 1.53 1.03 1.53 1.03.87 1.52 2.34 1.07 2.91.83.09-.65.35-1.09.63-1.34-2.22-.25-4.55-1.11-4.55-4.92 0-1.11.38-2 1.03-2.71-.1-.25-.45-1.29.1-2.64 0 0 .84-.27 2.75 1.02.79-.22 1.65-.33 2.5-.33.85 0 1.71.11 2.5.33 1.91-1.29 2.75-1.02 2.75-1.02.55 1.35.2 2.39.1 2.64.65.71 1.03 1.6 1.03 2.71 0 3.82-2.34 4.66-4.57 4.91.36.31.69.92.69 1.85V21c0 .27.16.59.67.5C19.14 20.16 22 16.42 22 12A10 10 0 0 0 12 2z"/>
    </symbol>
    
    <symbol id="twitter" viewBox="0 0 24 24">
        <path fill="currentColor" d="M22.46 6c-.77.35-1.6.58-2.46.69.88-.53 1.56-1.37 1.88-2.38-.83.5-1.75.85-2.72 1.05C18.37 4.5 17.26 4 16 4c-2.35 0-4.27 1.92-4.27 4.29 0 .34.04.67.11.98C8.28 9.09 5.11 7.38 3 4.79c-.37.63-.58 1.37-.58 2.15 0 1.49.75 2.81 1.91 3.56-.71 0-1.37-.2-1.95-.5v.03c0 2.08 1.48 3.82 3.44 4.21a4.22 4.22 0 0 1-1.93.07 4.28 4.28 0 0 0 4 2.98 8.521 8.521 0 0 1-5.33 1.84c-.34 0-.68-.02-1.02-.06C3.44 20.29 5.7 21 8.12 21 16 21 20.33 14.46 20.33 8.79c0-.19 0-.37-.01-.56.84-.6 1.56-1.36 2.14-2.23z"/>
    </symbol>
</svg>